<svg width="51" height="47" viewBox="0 0 51 47" fill="none" xmlns="http://www.w3.org/2000/svg">
<path d="M15.8801 45.2608C13.847 46.2425 11.7598 46.3549 9.61854 45.5981C7.4773 44.8414 5.8755 43.4494 4.81312 41.4221C4.66638 41.1182 4.53658 40.8061 4.42372 40.4858C4.31086 40.1655 4.21494 39.837 4.13597 39.5004L0.187819 20.419C-0.218254 18.3664 0.0341355 16.4226 0.944988 14.5878C1.85584 12.753 3.24311 11.3857 5.10681 10.4859L24.9297 0.914859C26.7934 0.0150179 28.7269 -0.221013 30.7302 0.206763C32.7335 0.634539 34.4125 1.64569 35.7674 3.2402L48.2546 18.1987C48.4692 18.4699 48.6793 18.7537 48.885 19.0499C49.0907 19.3462 49.267 19.6463 49.4137 19.9502C50.4083 22.0102 50.5151 24.1136 49.734 26.2605C48.953 28.4074 47.529 29.9799 45.4619 30.9779C44.0388 31.6651 42.5379 31.9317 40.9593 31.7777C39.3807 31.6238 37.9767 31.0524 36.7471 30.0636L33.9054 27.8128C33.573 27.5569 33.1965 27.4264 32.7762 27.4211C32.3558 27.4159 31.9592 27.5032 31.5865 27.6832L21.9292 32.346C21.5564 32.526 21.2414 32.7822 20.9841 33.1147C20.7267 33.4471 20.5949 33.8231 20.5885 34.2426L20.5839 37.8677C20.5935 39.4455 20.1678 40.9003 19.3066 42.2322C18.4454 43.5641 17.3033 44.5737 15.8801 45.2608ZM14.076 41.1348C14.7198 40.824 15.2228 40.3729 15.585 39.7816C15.9471 39.1903 16.1252 38.5422 16.1191 37.8372L16.1482 34.2628C16.151 32.9705 16.5011 31.7916 17.1984 30.7262C17.8958 29.6608 18.8205 28.8499 19.9726 28.2936L29.6299 23.6308C30.782 23.0746 31.9961 22.8631 33.2723 22.9965C34.5484 23.1299 35.7022 23.5723 36.7335 24.3236L39.5508 26.5238C40.099 26.967 40.7173 27.2306 41.4056 27.3147C42.0938 27.3988 42.7599 27.2855 43.4037 26.9746C44.3525 26.5165 45.0149 25.8115 45.391 24.8595C45.767 23.9076 45.7437 22.9506 45.3211 21.9887C45.3374 22.0225 45.1486 21.718 44.7548 21.0754L32.292 6.1675C31.6145 5.37024 30.7814 4.85636 29.7926 4.62585C28.8039 4.39534 27.8351 4.50913 26.8863 4.96723L7.0634 14.5383C6.11461 14.9964 5.41454 15.6883 4.96319 16.6142C4.51184 17.54 4.40463 18.5079 4.64155 19.5179L8.56524 38.5486C8.5953 38.784 8.70816 39.1043 8.90382 39.5095C9.36036 40.4551 10.0908 41.0809 11.0953 41.3872C12.0997 41.6934 13.0933 41.6093 14.076 41.1348ZM24.916 18.4112C25.4921 18.1331 25.8812 17.7058 26.0834 17.1293C26.2855 16.5528 26.248 15.9775 25.9708 15.4034C25.6936 14.8293 25.2665 14.4422 24.6893 14.2419C24.1121 14.0417 23.5355 14.0807 22.9594 14.3588C22.3834 14.637 21.9943 15.0643 21.7921 15.6408C21.5899 16.2173 21.6274 16.7926 21.9046 17.3667C22.1818 17.9408 22.609 18.3279 23.1862 18.5281C23.7633 18.7283 24.34 18.6893 24.916 18.4112ZM27.0257 12.3956C27.6017 12.1174 27.9908 11.6901 28.193 11.1136C28.3952 10.5371 28.3577 9.96181 28.0805 9.38772C27.8033 8.81364 27.3761 8.42649 26.7989 8.22629C26.2217 8.02608 25.6451 8.06505 25.0691 8.34318C24.493 8.62131 24.1039 9.04863 23.9017 9.62513C23.6996 10.2016 23.7371 10.7769 24.0142 11.351C24.2914 11.9251 24.7186 12.3122 25.2958 12.5124C25.873 12.7127 26.4496 12.6737 27.0257 12.3956ZM30.9388 20.5003C31.5149 20.2222 31.904 19.7949 32.1062 19.2184C32.3084 18.6419 32.2709 18.0666 31.9937 17.4925C31.7165 16.9184 31.2893 16.5312 30.7121 16.331C30.1349 16.1308 29.5583 16.1698 28.9823 16.4479C28.4062 16.7261 28.0171 17.1534 27.8149 17.7299C27.6127 18.3064 27.6502 18.8817 27.9274 19.4558C28.2046 20.0298 28.6318 20.417 29.209 20.6172C29.7862 20.8174 30.3628 20.7784 30.9388 20.5003ZM33.0485 14.4846C33.6245 14.2065 34.0137 13.7792 34.2158 13.2027C34.418 12.6262 34.3805 12.0509 34.1033 11.4768C33.8261 10.9027 33.3989 10.5156 32.8218 10.3154C32.2446 10.1152 31.6679 10.1541 31.0919 10.4323C30.5158 10.7104 30.1267 11.1377 29.9246 11.7142C29.7224 12.2907 29.7599 12.866 30.0371 13.4401C30.3143 14.0142 30.7414 14.4013 31.3186 14.6015C31.8958 14.8017 32.4724 14.7628 33.0485 14.4846ZM16.2179 26.3587C16.6584 26.146 16.9533 25.8266 17.1028 25.4005C17.2522 24.9744 17.2209 24.5418 17.009 24.1028L16.0307 22.0767L18.0638 21.095C18.5043 20.8823 18.7993 20.5629 18.9487 20.1368C19.0982 19.7107 19.0669 19.2781 18.8549 18.8391C18.643 18.4001 18.3237 18.1066 17.897 17.9587C17.4704 17.8107 17.0369 17.843 16.5964 18.0557L14.5632 19.0374L13.5849 17.0112C13.373 16.5722 13.0537 16.2787 12.6271 16.1307C12.2005 15.9827 11.7669 16.0151 11.3264 16.2278C10.8859 16.4405 10.5909 16.7599 10.4415 17.186C10.292 17.6121 10.3233 18.0446 10.5353 18.4837L11.5136 20.5098L9.48044 21.4915C9.03994 21.7042 8.74496 22.0236 8.59553 22.4497C8.4461 22.8758 8.47736 23.3084 8.68933 23.7474C8.90129 24.1864 9.22058 24.4799 9.6472 24.6278C10.0738 24.7758 10.5074 24.7435 10.9479 24.5308L12.981 23.5491L13.9593 25.5753C14.1713 26.0143 14.4906 26.3078 14.9172 26.4558C15.3438 26.6038 15.7774 26.5714 16.2179 26.3587Z" fill="#303131"/>
</svg>
